<svg xmlns="http://www.w3.org/2000/svg" class="product-pop-icon product-asset-icon" width="64" height="64" viewBox="0 0 64 64" role="img" data-product-illustration="watermelon-slice">
  <title>Wassermelone</title>
  <rect width="64" height="64" fill="#fff"/>
  <path d="M5 18c14-8 37-9 53 0l-5 34c-14 8-36 7-48-2Z" fill="#eb4d61" opacity=".18" stroke="none"/>
  <path d="m10 12 42 1 4 13-46 3Z" fill="#55ae58" opacity=".18" stroke="none"/>
  <g stroke="#171513" stroke-width="2.15" stroke-linecap="round" stroke-linejoin="round">
    <path d="M9 47 32 16l23 31Z" fill="#ef5a67"/>
    <path d="M9 47h46l-3-5H12Z" fill="#54b25c"/>
    <path d="M13 42h38" fill="none" stroke="#f0df77" stroke-width="2"/>
    <g fill="#302820" stroke="none"><ellipse cx="27" cy="34" rx="1.7" ry="2.5"/><ellipse cx="36" cy="30" rx="1.7" ry="2.5"/><ellipse cx="39" cy="39" rx="1.7" ry="2.5"/><ellipse cx="22" cy="40" rx="1.7" ry="2.5"/></g>
    <path d="M23 31c2-3 4-5 6-6" fill="none" stroke="#ffabb0" stroke-width="2.3"/>
  </g>
</svg>
