<svg xmlns="http://www.w3.org/2000/svg" class="product-pop-icon product-asset-icon" width="64" height="64" viewBox="0 0 64 64" role="img" data-product-illustration="cherry-pair">
  <title>Kirschen</title>
  <rect width="64" height="64" fill="#fff"/>
  <path d="M5 17c14-8 37-9 53 0l-5 35c-15 8-36 7-48-2Z" fill="#dc3d54" opacity=".18" stroke="none"/>
  <path d="m10 12 42 1 4 13-46 3Z" fill="#55ab58" opacity=".18" stroke="none"/>
  <g stroke="#171513" stroke-width="2.15" stroke-linecap="round" stroke-linejoin="round">
    <path d="M24 35c1-12 5-19 14-24m-1 24c2-12 6-18 15-21" fill="none" stroke="#428e4b" stroke-width="2.6"/>
    <path d="M37 13c4-5 10-5 14-1-4 4-9 5-14 3Z" fill="#58ad55"/>
    <circle cx="23" cy="43" r="10" fill="#d93448"/><circle cx="40" cy="43" r="10" fill="#e34654"/>
    <path d="M18 40c2-3 4-4 6-4m11 4c2-3 4-4 6-4" fill="none" stroke="#fff" stroke-width="2.2" opacity=".8"/>
  </g>
</svg>
