<svg xmlns="http://www.w3.org/2000/svg" class="product-pop-icon product-asset-icon" width="64" height="64" viewBox="0 0 64 64" role="img" data-product-illustration="carrot-bunch">
  <title>Karotten</title>
  <rect width="64" height="64" fill="#fff"/>
  <path d="M5 17c13-8 36-9 53 0l-5 35c-14 7-34 7-47-2Z" fill="#ff7b24" opacity=".16" stroke="none"/>
  <path d="M10 12c15 3 29 4 44 1l-2 11c-15-2-28-1-41 3Z" fill="#ffd646" opacity=".2" stroke="none"/>
  <g stroke="#171513" stroke-width="2.15" stroke-linecap="round" stroke-linejoin="round">
    <path d="M18 24 26 53 35 23Z" fill="#ff7b24"/><path d="M29 22 36 54 44 23Z" fill="#f05c25"/><path d="M39 24 45 50 52 25Z" fill="#ff9a2d"/><path d="M26 23C18 18 15 12 17 7c7 3 10 8 10 15Zm5-1c-2-9 1-15 6-18 4 6 2 13-4 19Zm9 2c1-8 6-12 12-13 1 7-4 12-11 15Z" fill="#3aad53"/><path d="m23 33 8-2m-6 9 8-2m2-6 8-2m-6 10 8-2" class="detail"/>
  </g>
  <style>
    .detail{fill:none;stroke:#171513;stroke-width:1.7}.fine{fill:none;stroke:#171513;stroke-width:1.35}.shine{fill:none;stroke:#fff;stroke-width:2.5;opacity:.78}.stem,.green-stalk{fill:none;stroke:#328f47;stroke-width:4}.frond{fill:none;stroke:#4a9b4f;stroke-width:2}.tie{fill:none;stroke:#dfad43;stroke-width:4}.slaw{fill:none;stroke:#b5ad91;stroke-width:2}.carrot-strip{fill:none;stroke:#ed7b32;stroke-width:2}.pasta{fill:none;stroke:#d88d28;stroke-width:2.4}
  </style>
</svg>
