<svg xmlns="http://www.w3.org/2000/svg" class="product-pop-icon product-asset-icon" width="64" height="64" viewBox="0 0 64 64" role="img" data-product-illustration="broccoli-floret">
  <title>Brokkoli</title>
  <rect width="64" height="64" fill="#fff"/>
  <path d="M5 17c13-8 36-9 53 0l-5 35c-14 7-34 7-47-2Z" fill="#2fa957" opacity=".16" stroke="none"/>
  <path d="M10 12c15 3 29 4 44 1l-2 11c-15-2-28-1-41 3Z" fill="#ffd646" opacity=".2" stroke="none"/>
  <g stroke="#171513" stroke-width="2.15" stroke-linecap="round" stroke-linejoin="round">
    <path d="M27 34h12l5 22H22Z" fill="#8bcf59"/><circle cx="19" cy="28" r="10" fill="#36ae55"/><circle cx="30" cy="22" r="12" fill="#2f994e"/><circle cx="43" cy="27" r="11" fill="#45bb5d"/><circle cx="33" cy="34" r="10" fill="#24934c"/><path d="M29 38c1 8 2 13 4 18m3-18c-1 7-1 12-1 18" class="detail"/><path d="M24 18c3-3 7-4 11-3" class="shine"/>
  </g>
  <style>
    .detail{fill:none;stroke:#171513;stroke-width:1.7}.fine{fill:none;stroke:#171513;stroke-width:1.35}.shine{fill:none;stroke:#fff;stroke-width:2.5;opacity:.78}.stem,.green-stalk{fill:none;stroke:#328f47;stroke-width:4}.frond{fill:none;stroke:#4a9b4f;stroke-width:2}.tie{fill:none;stroke:#dfad43;stroke-width:4}.slaw{fill:none;stroke:#b5ad91;stroke-width:2}.carrot-strip{fill:none;stroke:#ed7b32;stroke-width:2}.pasta{fill:none;stroke:#d88d28;stroke-width:2.4}
  </style>
</svg>
