<svg xmlns="http://www.w3.org/2000/svg" class="product-pop-icon product-asset-icon" width="64" height="64" viewBox="0 0 64 64" role="img" data-product-illustration="white-cauliflower">
  <title>Blumenkohl</title>
  <rect width="64" height="64" fill="#fff"/>
  <path d="M5 17c13-8 36-9 53 0l-5 35c-14 7-34 7-47-2Z" fill="#f4f0d9" opacity=".16" stroke="none"/>
  <path d="M10 12c15 3 29 4 44 1l-2 11c-15-2-28-1-41 3Z" fill="#ffd646" opacity=".2" stroke="none"/>
  <g stroke="#171513" stroke-width="2.15" stroke-linecap="round" stroke-linejoin="round">
    <path d="M13 51c4-16 9-23 19-23s16 7 20 23c-12-4-27-4-39 0Z" fill="#58a858"/><circle cx="20" cy="29" r="10" fill="#fffdf0"/><circle cx="31" cy="22" r="12" fill="#f4f0dc"/><circle cx="43" cy="28" r="11" fill="#fffcef"/><circle cx="33" cy="34" r="11" fill="#ece8d3"/><path d="M14 50c5-8 10-12 17-14M51 50c-5-8-10-12-17-14" class="detail"/><path d="M25 17c4-3 9-3 13 0" class="shine"/>
  </g>
  <style>
    .detail{fill:none;stroke:#171513;stroke-width:1.7}.fine{fill:none;stroke:#171513;stroke-width:1.35}.shine{fill:none;stroke:#fff;stroke-width:2.5;opacity:.78}.stem,.green-stalk{fill:none;stroke:#328f47;stroke-width:4}.frond{fill:none;stroke:#4a9b4f;stroke-width:2}.tie{fill:none;stroke:#dfad43;stroke-width:4}.slaw{fill:none;stroke:#b5ad91;stroke-width:2}.carrot-strip{fill:none;stroke:#ed7b32;stroke-width:2}.pasta{fill:none;stroke:#d88d28;stroke-width:2.4}
  </style>
</svg>
