<svg xmlns="http://www.w3.org/2000/svg" class="product-pop-icon product-asset-icon" width="64" height="64" viewBox="0 0 64 64" role="img" data-product-illustration="three-garlic-bulbs">
  <title>Knoblauch</title>
  <rect width="64" height="64" fill="#fff"/>
  <path d="M5 17c13-8 36-9 53 0l-5 35c-14 7-34 7-47-2Z" fill="#e8dfd1" opacity=".16" stroke="none"/>
  <path d="M10 12c15 3 29 4 44 1l-2 11c-15-2-28-1-41 3Z" fill="#ffd646" opacity=".2" stroke="none"/>
  <g stroke="#171513" stroke-width="2.15" stroke-linecap="round" stroke-linejoin="round">
    <path d="M9 38c1-8 7-13 13-10 5-4 11 1 11 9 0 10-5 16-12 16S8 48 9 38Z" fill="#fff8e8"/><path d="M29 33c1-8 7-13 13-9 6-3 12 2 11 11 0 10-5 16-12 16S28 44 29 33Z" fill="#eee2d1"/><path d="M18 28c0-6 2-11 5-16m16 12c0-6 2-10 5-14M21 30c-3 8-2 16 0 22m3-22c3 8 2 16-1 22m17-27c-3 8-2 16 0 25m4-24c3 8 2 16-1 24" class="detail"/><path d="M16 34c2-3 5-4 8-3m12-1c3-3 6-3 9-1" class="shine"/>
  </g>
  <style>
    .detail{fill:none;stroke:#171513;stroke-width:1.7}.fine{fill:none;stroke:#171513;stroke-width:1.35}.shine{fill:none;stroke:#fff;stroke-width:2.5;opacity:.78}.stem,.green-stalk{fill:none;stroke:#328f47;stroke-width:4}.frond{fill:none;stroke:#4a9b4f;stroke-width:2}.tie{fill:none;stroke:#dfad43;stroke-width:4}.slaw{fill:none;stroke:#b5ad91;stroke-width:2}.carrot-strip{fill:none;stroke:#ed7b32;stroke-width:2}.pasta{fill:none;stroke:#d88d28;stroke-width:2.4}
  </style>
</svg>
