<svg xmlns="http://www.w3.org/2000/svg" class="product-pop-icon product-asset-icon" width="64" height="64" viewBox="0 0 64 64" role="img" data-product-illustration="spinach-leaf-pile">
  <title>Spinat</title>
  <rect width="64" height="64" fill="#fff"/>
  <path d="M5 17c13-8 36-9 53 0l-5 35c-14 7-34 7-47-2Z" fill="#2a9850" opacity=".16" stroke="none"/>
  <path d="M10 12c15 3 29 4 44 1l-2 11c-15-2-28-1-41 3Z" fill="#ffd646" opacity=".2" stroke="none"/>
  <g stroke="#171513" stroke-width="2.15" stroke-linecap="round" stroke-linejoin="round">
    <path d="M9 43c3-12 12-17 23-13-3 12-12 18-23 13Z" fill="#2f9e51"/><path d="M20 51c1-13 10-21 22-20 0 13-9 21-22 20Z" fill="#4ab65a"/><path d="M28 40c5-12 15-16 25-10-5 11-14 16-25 10Z" fill="#237e45"/><path d="M10 43c8-1 15-4 22-13m-12 21c6-6 14-13 22-20m-14 9c8-2 16-5 25-10" class="detail"/>
  </g>
  <style>
    .detail{fill:none;stroke:#171513;stroke-width:1.7}.fine{fill:none;stroke:#171513;stroke-width:1.35}.shine{fill:none;stroke:#fff;stroke-width:2.5;opacity:.78}.stem,.green-stalk{fill:none;stroke:#328f47;stroke-width:4}.frond{fill:none;stroke:#4a9b4f;stroke-width:2}.tie{fill:none;stroke:#dfad43;stroke-width:4}.slaw{fill:none;stroke:#b5ad91;stroke-width:2}.carrot-strip{fill:none;stroke:#ed7b32;stroke-width:2}.pasta{fill:none;stroke:#d88d28;stroke-width:2.4}
  </style>
</svg>
