<svg xmlns="http://www.w3.org/2000/svg" class="product-pop-icon product-asset-icon" width="64" height="64" viewBox="0 0 64 64" role="img" data-product-illustration="sweet-potato-pair">
  <title>Süßkartoffeln</title>
  <rect width="64" height="64" fill="#fff"/>
  <path d="M5 17c13-8 36-9 53 0l-5 35c-14 7-34 7-47-2Z" fill="#bb6238" opacity=".16" stroke="none"/>
  <path d="M10 12c15 3 29 4 44 1l-2 11c-15-2-28-1-41 3Z" fill="#ffd646" opacity=".2" stroke="none"/>
  <g stroke="#171513" stroke-width="2.15" stroke-linecap="round" stroke-linejoin="round">
    <path d="M9 42c4-14 14-22 27-20 8 1 10 9 4 18-8 12-18 18-26 13-4-2-6-6-5-11Z" fill="#ba6139"/><path d="M28 30c7-10 18-13 26-7 7 6 3 16-8 24-9 7-18 6-21-1-2-5-1-10 3-16Z" fill="#d37742"/><path d="m16 40 2 1m8-9 2-1m7 10 2 1m10-11 2-1" class="fine"/><path d="M14 37c5-7 12-11 19-10m2 4c4-4 9-6 14-5" class="shine"/>
  </g>
  <style>
    .detail{fill:none;stroke:#171513;stroke-width:1.7}.fine{fill:none;stroke:#171513;stroke-width:1.35}.shine{fill:none;stroke:#fff;stroke-width:2.5;opacity:.78}.stem,.green-stalk{fill:none;stroke:#328f47;stroke-width:4}.frond{fill:none;stroke:#4a9b4f;stroke-width:2}.tie{fill:none;stroke:#dfad43;stroke-width:4}.slaw{fill:none;stroke:#b5ad91;stroke-width:2}.carrot-strip{fill:none;stroke:#ed7b32;stroke-width:2}.pasta{fill:none;stroke:#d88d28;stroke-width:2.4}
  </style>
</svg>
