<svg xmlns="http://www.w3.org/2000/svg" class="product-pop-icon product-asset-icon" width="64" height="64" viewBox="0 0 64 64" role="img" data-product-illustration="spring-onion-bunch">
  <title>Frühlingszwiebeln</title>
  <rect width="64" height="64" fill="#fff"/>
  <path d="M5 17c13-8 36-9 53 0l-5 35c-14 7-34 7-47-2Z" fill="#55ad4f" opacity=".16" stroke="none"/>
  <path d="M10 12c15 3 29 4 44 1l-2 11c-15-2-28-1-41 3Z" fill="#ffd646" opacity=".2" stroke="none"/>
  <g stroke="#171513" stroke-width="2.15" stroke-linecap="round" stroke-linejoin="round">
    <path d="M20 57c2-17 2-31 0-44m8 44c1-20 1-37 3-51m5 51c2-18 6-34 13-47m-5 47c1-15 5-27 12-37" class="green-stalk"/><path d="M18 57c2-8 2-15 2-22h8c1 8 1 15 0 22Zm10 0c1-9 2-16 4-23h8c0 8-1 16-4 23Zm8 0c3-8 6-14 10-20l7 4c-3 7-6 12-9 16Z" fill="#fff5da"/><path d="m18 57-4 4m9-4-1 5m7-5 2 5m6-5-2 5m8-5 4 4" class="fine"/><path d="M19 35h29" class="tie"/>
  </g>
  <style>
    .detail{fill:none;stroke:#171513;stroke-width:1.7}.fine{fill:none;stroke:#171513;stroke-width:1.35}.shine{fill:none;stroke:#fff;stroke-width:2.5;opacity:.78}.stem,.green-stalk{fill:none;stroke:#328f47;stroke-width:4}.frond{fill:none;stroke:#4a9b4f;stroke-width:2}.tie{fill:none;stroke:#dfad43;stroke-width:4}.slaw{fill:none;stroke:#b5ad91;stroke-width:2}.carrot-strip{fill:none;stroke:#ed7b32;stroke-width:2}.pasta{fill:none;stroke:#d88d28;stroke-width:2.4}
  </style>
</svg>
