<svg xmlns="http://www.w3.org/2000/svg" class="product-pop-icon product-asset-icon" width="64" height="64" viewBox="0 0 64 64" role="img" data-product-illustration="three-chili-peppers">
  <title>Chili</title>
  <rect width="64" height="64" fill="#fff"/>
  <path d="M5 17c13-8 36-9 53 0l-5 35c-14 7-34 7-47-2Z" fill="#e83b32" opacity=".16" stroke="none"/>
  <path d="M10 12c15 3 29 4 44 1l-2 11c-15-2-28-1-41 3Z" fill="#ffd646" opacity=".2" stroke="none"/>
  <g stroke="#171513" stroke-width="2.15" stroke-linecap="round" stroke-linejoin="round">
    <path d="M10 25c12 0 21 7 25 20-12 5-25-2-25-20Z" fill="#e83d34"/><path d="M23 18c12 1 20 9 22 22-13 3-24-6-22-22Z" fill="#f35a30"/><path d="M36 17c10 3 15 11 14 22-11 0-19-10-14-22Z" fill="#7bad3e"/><path d="M10 25c-2-4-1-7 3-9m10 2c0-4 2-7 6-8m7 7c1-4 4-6 8-6" class="stem"/><path d="M15 27c6 2 11 6 15 12m-2-18c6 3 10 7 13 13" class="shine"/>
  </g>
  <style>
    .detail{fill:none;stroke:#171513;stroke-width:1.7}.fine{fill:none;stroke:#171513;stroke-width:1.35}.shine{fill:none;stroke:#fff;stroke-width:2.5;opacity:.78}.stem,.green-stalk{fill:none;stroke:#328f47;stroke-width:4}.frond{fill:none;stroke:#4a9b4f;stroke-width:2}.tie{fill:none;stroke:#dfad43;stroke-width:4}.slaw{fill:none;stroke:#b5ad91;stroke-width:2}.carrot-strip{fill:none;stroke:#ed7b32;stroke-width:2}.pasta{fill:none;stroke:#d88d28;stroke-width:2.4}
  </style>
</svg>
