<svg xmlns="http://www.w3.org/2000/svg" class="product-pop-icon product-asset-icon" width="64" height="64" viewBox="0 0 64 64" role="img" data-product-illustration="rocket-leaf-bundle">
  <title>Rucola</title>
  <rect width="64" height="64" fill="#fff"/>
  <path d="M5 17c13-8 36-9 53 0l-5 35c-14 7-34 7-47-2Z" fill="#2f954a" opacity=".16" stroke="none"/>
  <path d="M10 12c15 3 29 4 44 1l-2 11c-15-2-28-1-41 3Z" fill="#ffd646" opacity=".2" stroke="none"/>
  <g stroke="#171513" stroke-width="2.15" stroke-linecap="round" stroke-linejoin="round">
    <path d="M20 54c0-8 1-15 4-22-8-1-11-5-10-10 4 1 7 0 9-3-3-6-1-10 4-13 3 4 5 8 4 13 4-2 8-1 10 3-2 4-5 7-10 9 2 8 1 15-2 23Z" fill="#3da44e"/><path d="M36 55c0-7 1-13 4-19-6-1-9-4-8-8 4 1 6 0 8-3-2-5 0-8 4-10 3 3 4 7 3 10 4-1 7 0 9 3-2 4-5 6-9 8 1 7 0 13-2 19Z" fill="#68b74f"/><path d="M27 8c2 15 2 30-7 46m24-38c2 13 1 26-8 39" class="detail"/>
  </g>
  <style>
    .detail{fill:none;stroke:#171513;stroke-width:1.7}.fine{fill:none;stroke:#171513;stroke-width:1.35}.shine{fill:none;stroke:#fff;stroke-width:2.5;opacity:.78}.stem,.green-stalk{fill:none;stroke:#328f47;stroke-width:4}.frond{fill:none;stroke:#4a9b4f;stroke-width:2}.tie{fill:none;stroke:#dfad43;stroke-width:4}.slaw{fill:none;stroke:#b5ad91;stroke-width:2}.carrot-strip{fill:none;stroke:#ed7b32;stroke-width:2}.pasta{fill:none;stroke:#d88d28;stroke-width:2.4}
  </style>
</svg>
