<svg xmlns="http://www.w3.org/2000/svg" class="product-pop-icon product-asset-icon" width="64" height="64" viewBox="0 0 64 64" role="img" data-product-illustration="salad-bag">
  <title>Fertigsalat</title>
  <rect width="64" height="64" fill="#fff"/>
  <path d="M5 17c13-8 36-9 53 0l-5 35c-14 7-34 7-47-2Z" fill="#46a95a" opacity=".16" stroke="none"/>
  <path d="M10 12c15 3 29 4 44 1l-2 11c-15-2-28-1-41 3Z" fill="#ffd646" opacity=".2" stroke="none"/>
  <g stroke="#171513" stroke-width="2.15" stroke-linecap="round" stroke-linejoin="round">
    <path d="M16 10h32l5 45H11Z" fill="#eef7e5"/><path d="M17 18h30M14 46h36" class="detail"/><path d="M17 42c4-11 10-15 16-8 5-7 11-4 14 8Z" fill="#68b956"/><path d="M20 37c2-6 5-9 9-11 2 6 1 10-4 14m12 0c-2-7 0-12 5-15 4 7 2 12-5 15Z" fill="#3c984c"/><text x="32" y="26" text-anchor="middle" font-family="Arial, sans-serif" font-size="8" font-weight="800" fill="#171513" stroke="none">SALAT</text><path d="M20 13h24" class="shine"/>
  </g>
  <style>
    .detail{fill:none;stroke:#171513;stroke-width:1.7}.fine{fill:none;stroke:#171513;stroke-width:1.35}.shine{fill:none;stroke:#fff;stroke-width:2.5;opacity:.78}.stem,.green-stalk{fill:none;stroke:#328f47;stroke-width:4}.frond{fill:none;stroke:#4a9b4f;stroke-width:2}.tie{fill:none;stroke:#dfad43;stroke-width:4}.slaw{fill:none;stroke:#b5ad91;stroke-width:2}.carrot-strip{fill:none;stroke:#ed7b32;stroke-width:2}.pasta{fill:none;stroke:#d88d28;stroke-width:2.4}
  </style>
</svg>
