<svg xmlns="http://www.w3.org/2000/svg" class="product-pop-icon product-asset-icon" width="64" height="64" viewBox="0 0 64 64" role="img" data-product-illustration="antipasti-platter">
  <title>Antipasti</title>
  <rect width="64" height="64" fill="#fff"/>
  <path d="M5 17c13-8 36-9 53 0l-5 35c-14 7-34 7-47-2Z" fill="#e64e3c" opacity=".16" stroke="none"/>
  <path d="M10 12c15 3 29 4 44 1l-2 11c-15-2-28-1-41 3Z" fill="#ffd646" opacity=".2" stroke="none"/>
  <g stroke="#171513" stroke-width="2.15" stroke-linecap="round" stroke-linejoin="round">
    <ellipse cx="32" cy="37" rx="25" ry="17" fill="#f3eee3"/><path d="M13 38c7-12 13-13 18-3-6 8-12 9-18 3Z" fill="#e9573e"/><path d="M34 29c6-9 13-8 17 1-4 8-10 10-17 6Z" fill="#ef9d2f"/><circle cx="24" cy="44" r="5" fill="#608237"/><circle cx="39" cy="45" r="5" fill="#446d32"/><circle cx="49" cy="39" r="4" fill="#728f3b"/><path d="M18 37c3-3 6-4 9-3m11-4c3-2 6-2 9 0" class="shine"/><path d="M12 48c12 7 28 7 40 0" class="detail"/>
  </g>
  <style>
    .detail{fill:none;stroke:#171513;stroke-width:1.7}.fine{fill:none;stroke:#171513;stroke-width:1.35}.shine{fill:none;stroke:#fff;stroke-width:2.5;opacity:.78}.stem,.green-stalk{fill:none;stroke:#328f47;stroke-width:4}.frond{fill:none;stroke:#4a9b4f;stroke-width:2}.tie{fill:none;stroke:#dfad43;stroke-width:4}.slaw{fill:none;stroke:#b5ad91;stroke-width:2}.carrot-strip{fill:none;stroke:#ed7b32;stroke-width:2}.pasta{fill:none;stroke:#d88d28;stroke-width:2.4}
  </style>
</svg>
